<svg width="25" height="24" viewBox="0 0 25 24" fill="none" xmlns="http://www.w3.org/2000/svg">
<g clip-path="url(#clip0_655_52)">
<path d="M24.6945 0H0.625977V24H24.6945V0Z" fill="white" fill-opacity="0.01"/>
<path d="M12.6601 22C16.7892 22 20.1814 18.7371 20.1814 14.5491C20.1814 13.5209 20.129 12.4187 19.5575 10.7058C18.986 8.9929 18.8708 8.7718 18.2665 7.71395C18.0083 9.8727 16.6269 10.7724 16.276 11.0413C16.276 10.7615 15.4403 7.66795 14.1732 5.81695C12.9294 4 11.2377 2.80796 10.2459 2C10.2459 3.53489 9.81294 5.81695 9.19292 6.9797C8.57291 8.14245 8.45647 8.1848 7.68202 9.0501C6.90761 9.9154 6.55215 10.1826 5.90455 11.2325C5.25699 12.2825 5.13867 13.6809 5.13867 14.7091C5.13867 18.8971 8.53099 22 12.6601 22Z" fill="white"/>
</g>
<defs>
<clipPath id="clip0_655_52">
<rect width="24.0686" height="24" fill="white" transform="translate(0.625977)"/>
</clipPath>
</defs>
</svg>
