<svg width="24" height="24" viewBox="0 0 24 24" fill="none" xmlns="http://www.w3.org/2000/svg">
<g id="Frame" clip-path="url(#clip0_621_12387)">
<path id="Vector" d="M24.0001 0H0.000106812V24H24.0001V0Z" fill="white" fill-opacity="0.01"/>
<path id="Vector_2" d="M12.0001 22C16.1175 22 19.5 18.7371 19.5 14.5491C19.5 13.5209 19.4478 12.4187 18.8779 10.7058C18.308 8.9929 18.1932 8.7718 17.5906 7.71395C17.3331 9.8727 15.9556 10.7724 15.6057 11.0413C15.6057 10.7615 14.7724 7.66795 13.5089 5.81695C12.2686 4 10.5818 2.80796 9.59276 2C9.59276 3.53489 9.16106 5.81695 8.54281 6.9797C7.92456 8.14245 7.80846 8.1848 7.03621 9.0501C6.26401 9.9154 5.90956 10.1826 5.26381 11.2325C4.61809 12.2825 4.50011 13.6809 4.50011 14.7091C4.50011 18.8971 7.88276 22 12.0001 22Z" fill="white"/>
</g>
<defs>
<clipPath id="clip0_621_12387">
<rect width="24" height="24" fill="white"/>
</clipPath>
</defs>
</svg>
